####
#
# OBJ File Generated by Meshlab
#
####
# Object abusimbel_h_A.obj
#
# Vertices: 24
# Faces: 6
#
####
mtllib ./abusimbel_h_A.obj.mtl

vn 0.000000 -2.000000 0.000000
v -15.295341 14.044044 33.694733 1.000000 1.000000 1.000000
vn 0.000000 -1.000000 0.000000
v -15.295341 14.044044 30.991917 1.000000 1.000000 1.000000
vn 0.000000 -2.000000 0.000000
v -12.304853 14.044044 30.991917 1.000000 1.000000 1.000000
vn 0.000000 -1.000000 0.000000
v -12.304853 14.044044 33.694733 1.000000 1.000000 1.000000
vn -2.000000 0.000000 0.000000
v -15.295341 14.044044 30.991917 1.000000 1.000000 1.000000
vn -1.000000 0.000000 0.000000
v -15.295341 14.044044 33.694733 1.000000 1.000000 1.000000
vn -2.000000 0.000000 0.000000
v -15.295341 19.424482 33.694733 1.000000 1.000000 1.000000
vn -1.000000 0.000000 0.000000
v -15.295341 19.424482 30.991917 1.000000 1.000000 1.000000
vn 0.000000 0.000000 2.000000
v -15.295341 14.044044 33.694733 1.000000 1.000000 1.000000
vn 0.000000 0.000000 1.000000
v -12.304853 14.044044 33.694733 1.000000 1.000000 1.000000
vn 0.000000 0.000000 2.000000
v -12.304853 19.424482 33.694733 1.000000 1.000000 1.000000
vn 0.000000 0.000000 1.000000
v -15.295341 19.424482 33.694733 1.000000 1.000000 1.000000
vn 2.000000 0.000000 0.000000
v -12.304853 14.044044 33.694733 1.000000 1.000000 1.000000
vn 1.000000 0.000000 0.000000
v -12.304853 14.044044 30.991917 1.000000 1.000000 1.000000
vn 2.000000 0.000000 0.000000
v -12.304853 19.424482 30.991917 1.000000 1.000000 1.000000
vn 1.000000 0.000000 0.000000
v -12.304853 19.424482 33.694733 1.000000 1.000000 1.000000
vn 0.000000 0.000000 -2.000000
v -12.304853 14.044044 30.991917 1.000000 1.000000 1.000000
vn 0.000000 0.000000 -1.000000
v -15.295341 14.044044 30.991917 1.000000 1.000000 1.000000
vn 0.000000 0.000000 -2.000000
v -15.295341 19.424482 30.991917 1.000000 1.000000 1.000000
vn 0.000000 0.000000 -1.000000
v -12.304853 19.424482 30.991917 1.000000 1.000000 1.000000
vn 0.000000 2.000000 0.000000
v -15.295341 19.424482 33.694733 1.000000 1.000000 1.000000
vn 0.000000 1.000000 0.000000
v -12.304853 19.424482 33.694733 1.000000 1.000000 1.000000
vn 0.000000 2.000000 0.000000
v -12.304853 19.424482 30.991917 1.000000 1.000000 1.000000
vn 0.000000 1.000000 0.000000
v -15.295341 19.424482 30.991917 1.000000 1.000000 1.000000
# 24 vertices, 0 vertices normals


usemtl material_0
f 2//2 3//3 4//4 1//1
f 6//6 7//7 8//8 5//5
f 10//10 11//11 12//12 9//9
f 14//14 15//15 16//16 13//13
f 18//18 19//19 20//20 17//17
f 22//22 23//23 24//24 21//21
# 6 faces, 0 coords texture

# End of File
